# xmcd
#
# Track frame offsets:
#	150
#	20794
#	38144
#	57859
#	74667
#	94724
#	110836
#	131078
#	150165
#	166395
#	185741
#	207536
#
# Disc length: 3028 seconds
#
# Revision: 0
# Processed by: cddbd v1.5.2PL0 Copyright (c) Steve Scherf et al.
# Submitted via: EasyCDDAExtractor 2010.6.0.0
#
DISCID=b00bd20c
DTITLE=Beth Hart - My California
DYEAR=1900
DGENRE=
TTITLE0=My California
TTITLE1=Life Is Callin
TTITLE2=Happiness...Any Day Now
TTITLE3=Love Is The Hardest
TTITLE4=Bad Love Is Good Enough
TTITLE5=Drive
TTITLE6=Sister Heroine
TTITLE7=Take It Easy On Me
TTITLE8=Like You (And Everyone Else)
TTITLE9=Everybody Is Sober
TTITLE10=Weight Of The World
TTITLE11=Oh Me Oh My
EXTD=
EXTT0=
EXTT1=
EXTT2=
EXTT3=
EXTT4=
EXTT5=
EXTT6=
EXTT7=
EXTT8=
EXTT9=
EXTT10=
EXTT11=
PLAYORDER=
